<svg version="1.1" id="Layer_1" xmlns="http://www.w3.org/2000/svg" xmlns:xlink="http://www.w3.org/1999/xlink" x="0px" y="0px"
	 width="100%" viewBox="0 0 624 147" enable-background="new 0 0 624 147" xml:space="preserve">
<path fill="#000000" opacity="1.000000" stroke="none" 
	d="
M625.000000,41.000000 
	C625.000000,76.637856 625.000000,112.275719 625.000000,148.000000 
	C480.312439,148.000000 335.624878,148.000000 190.184875,147.711121 
	C192.304581,144.186020 196.447571,141.404236 197.799271,137.624313 
	C201.204269,128.102448 203.691162,118.207413 205.924271,108.321510 
	C209.563446,92.210869 212.642914,75.974174 216.195419,59.842831 
	C216.451843,58.678452 218.569595,57.256145 219.931290,57.129475 
	C223.859802,56.764030 227.844284,57.000359 231.752258,57.000359 
	C232.289536,53.852615 232.744965,51.184494 233.316162,47.838097 
	C228.143341,47.838097 223.612457,47.838097 219.038254,47.838097 
	C219.428009,45.170410 219.616608,43.062927 220.056366,41.009235 
	C222.083664,31.541580 228.136673,27.225910 236.485443,29.213749 
	C239.955109,30.039877 244.526428,25.856070 243.902359,22.268072 
	C243.763962,21.472363 242.858505,20.300457 242.163528,20.188654 
	C233.611359,18.812788 224.365631,16.311619 217.444519,23.199661 
	C213.354446,27.270174 209.979324,33.287746 208.959671,38.914822 
	C207.573944,46.562183 203.761948,49.815273 196.846024,50.990318 
	C193.607773,51.540516 192.483459,53.524433 193.319397,57.023659 
	C197.092178,57.023659 200.844330,57.023659 204.614517,57.023659 
	C202.360123,68.013504 200.215332,78.665337 197.983337,89.298874 
	C195.321915,101.978165 192.773544,114.685776 189.817627,127.297081 
	C187.759140,136.079575 183.996902,138.325211 175.282684,137.029053 
	C174.346146,136.889755 173.370956,137.010284 172.000000,137.010284 
	C172.000000,140.897873 172.000000,144.448944 172.000000,148.000000 
	C115.088539,148.000000 58.177074,148.000000 1.000000,148.000000 
	C1.000000,111.312866 1.000000,74.625092 1.338031,37.177589 
	C2.034402,36.760540 2.590774,37.040321 2.722468,37.454975 
	C7.510920,52.532116 12.212504,67.636932 17.026314,82.705902 
	C22.970390,101.313026 29.019350,119.886642 34.975826,138.489822 
	C35.663391,140.637222 36.311832,142.852539 39.162514,141.906998 
	C49.822826,138.371094 60.434547,134.688690 71.528702,131.040268 
	C98.864120,130.697723 125.735329,130.376129 152.845642,130.051682 
	C152.845642,121.498825 152.845642,113.698883 152.994141,105.590134 
	C162.357315,95.096359 171.635727,84.967018 180.668991,74.623573 
	C181.413239,73.771378 181.120590,70.918358 180.249573,69.919144 
	C170.904663,59.198902 161.346237,48.664761 151.902283,37.609100 
	C151.972031,31.674345 151.887741,26.207529 152.032059,20.746756 
	C152.138641,16.713173 150.912842,14.827480 146.355530,14.904942 
	C131.622711,15.155355 116.882660,14.980704 102.083633,14.575726 
	C100.681252,9.787741 99.340630,5.393870 98.000000,1.000000 
	C273.666656,1.000000 449.333344,1.000000 625.000000,1.000000 
	C625.000000,11.412197 625.000000,21.737440 624.632690,32.532852 
	C622.891357,34.165310 621.517456,35.327602 620.141418,36.491631 
	C620.033325,35.455200 619.918884,34.358257 619.792175,33.143776 
	C616.946899,33.143776 614.215515,33.143776 612.208618,33.143776 
	C612.042908,35.872742 611.888550,38.414604 611.734253,40.956470 
	C611.925903,41.018017 612.117615,41.079559 612.309326,41.141106 
	C613.442261,38.692207 614.575256,36.243313 615.708191,33.794415 
	C616.054077,33.991596 616.399963,34.188774 616.745789,34.385956 
	C616.433777,36.396019 616.121765,38.406082 615.868591,40.037476 
	C619.134155,40.381695 622.067078,40.690849 625.000000,41.000000 
M582.889099,114.116081 
	C583.347351,115.072647 583.778320,116.845001 584.268005,116.861366 
	C590.057373,117.054794 595.855469,116.985794 601.782349,116.985794 
	C603.137817,110.568588 604.484497,104.648621 605.626953,98.689484 
	C607.978027,86.425362 611.720581,74.397980 611.062561,61.642826 
	C610.492126,50.585819 601.386292,43.882313 590.379395,45.607811 
	C581.709839,46.966888 576.728394,52.731091 571.302490,58.401283 
	C566.997314,49.000927 560.282715,44.131039 553.299438,45.046406 
	C544.826843,46.157005 538.490173,50.731293 532.844482,58.204441 
	C533.057678,53.825363 533.214417,50.605003 533.378479,47.235321 
	C528.432373,47.235321 523.494202,47.235321 518.356628,47.235321 
	C513.471008,70.417603 508.624786,93.412994 503.655853,116.990540 
	C509.934296,116.990540 515.251221,117.186592 520.533081,116.843704 
	C521.754211,116.764427 523.589172,115.018707 523.896667,113.740341 
	C526.429260,103.212364 528.514160,92.576614 531.051331,82.049835 
	C532.682190,75.283272 535.046753,68.549446 540.710754,64.140732 
	C542.834656,62.487587 546.612610,62.190250 549.454224,62.585426 
	C550.691406,62.757477 552.052002,66.159004 552.307068,68.223465 
	C552.618164,70.741364 552.006287,73.433113 551.479309,75.984749 
	C548.697205,89.455070 545.816040,102.904945 542.893677,116.719276 
	C549.757263,116.719276 556.168945,116.719276 562.441589,116.719276 
	C565.338318,103.948341 567.701782,91.339684 571.213989,79.059601 
	C572.741699,73.718269 576.073853,68.580803 579.704163,64.298157 
	C581.279419,62.439892 585.880188,62.102951 588.707520,62.769203 
	C590.227417,63.127350 591.523865,67.003326 591.786621,69.415558 
	C592.057800,71.904755 590.974182,74.548393 590.445374,77.116669 
	C587.963135,89.171570 585.467896,101.223801 582.889099,114.116081 
M427.000549,91.146988 
	C425.832947,76.549767 424.665314,61.952541 423.506653,47.467125 
	C416.908997,47.467125 410.563599,47.467125 404.103241,47.467125 
	C405.775085,60.158154 407.474609,72.361275 408.963989,84.589973 
	C410.118774,94.071556 411.010925,103.585121 412.020111,113.084442 
	C412.307587,115.790436 413.519073,117.181030 416.533569,117.053276 
	C421.358185,116.848801 426.210693,117.195389 431.023254,116.879631 
	C432.483734,116.783798 434.475647,115.615517 435.168518,114.357170 
	C447.406158,92.132713 459.480316,69.818222 471.873840,47.000248 
	C467.707062,47.000248 464.161011,47.482430 460.797333,46.903965 
	C452.787598,45.526505 448.866760,49.070713 445.718658,56.245136 
	C440.096497,69.057823 433.358459,81.380867 427.001801,94.078819 
	C427.001801,93.265182 427.001801,92.602219 427.000549,91.146988 
M274.931000,113.274971 
	C274.608093,114.380280 274.285187,115.485588 273.842865,116.999680 
	C276.563507,116.999680 278.567566,116.816673 280.524536,117.042290 
	C283.510315,117.386528 284.481842,115.828964 285.022736,113.250824 
	C288.577942,96.306091 292.252350,79.386353 295.801147,62.440296 
	C296.776978,57.780647 297.457214,53.059097 298.496429,47.081203 
	C294.401154,48.104862 290.930237,48.030235 288.997589,49.717567 
	C287.020111,51.444031 286.550323,54.897385 285.774963,56.748642 
	C282.049469,53.864292 278.670288,49.905293 274.392700,48.200798 
	C263.721100,43.948460 250.653687,49.322781 243.217499,60.518116 
	C234.699707,73.341888 231.789841,87.692390 234.164398,102.752022 
	C235.995483,114.364769 245.511551,121.807976 257.505951,117.810364 
	C263.742676,115.731720 269.297302,111.606384 274.991058,108.497833 
	C274.991058,109.191345 274.991058,110.808762 274.931000,113.274971 
M332.011353,91.533142 
	C336.383789,96.798676 336.289795,100.702744 331.339600,105.147606 
	C327.304443,108.770897 322.275635,109.599030 317.192413,108.516006 
	C311.738342,107.353973 306.429565,105.509903 300.999451,103.946785 
	C300.999451,105.688660 301.249573,107.724220 300.946991,109.674011 
	C300.330536,113.645889 301.957581,115.190201 305.744324,116.526398 
	C315.272369,119.888489 324.860077,119.793610 334.070984,116.778938 
	C348.873016,111.934341 351.190155,92.523575 342.201202,84.872871 
	C337.413086,80.797592 331.906830,77.513367 326.509552,74.225243 
	C322.967926,72.067604 320.662018,69.483101 321.025299,65.197571 
	C321.376007,61.060837 323.885498,58.408237 327.838623,58.091019 
	C332.433289,57.722324 337.279175,57.435738 341.691711,58.481728 
	C350.839935,60.650307 350.751282,61.022076 353.355865,52.124470 
	C353.432648,51.862122 353.545288,51.610271 353.610596,51.435398 
	C343.762207,47.189953 333.637024,45.528435 323.047180,47.992882 
	C316.517456,49.512470 309.945129,55.945038 309.072021,62.274143 
	C307.994232,70.086945 309.802094,77.088089 316.599854,81.832870 
	C321.364380,85.158470 326.463470,88.004745 332.011353,91.533142 
M398.266479,47.999981 
	C394.295624,47.999981 390.324768,47.999981 385.749237,47.999981 
	C386.908752,42.544800 387.971100,37.546886 389.034363,32.544636 
	C381.960236,31.346540 381.923737,31.328417 378.916565,37.386837 
	C376.089630,43.082260 372.640015,48.371078 366.052063,49.832874 
	C361.794250,50.777641 361.356537,53.337067 361.093109,57.084938 
	C364.507538,57.084938 367.614319,57.084938 370.988739,57.084938 
	C370.988739,58.432640 371.159790,59.441193 370.962402,60.371590 
	C368.880310,70.186531 366.481018,79.942688 364.711426,89.812271 
	C363.647278,95.747627 363.068359,101.857841 363.112427,107.883324 
	C363.177307,116.763100 376.502380,120.165947 382.966431,118.523819 
	C391.383118,116.385628 391.366821,116.302948 390.922211,107.910675 
	C390.907806,107.638985 390.587677,107.383499 390.316742,106.982307 
	C388.794830,107.313469 387.233337,107.747131 385.642517,107.983925 
	C376.508972,109.343414 373.156525,105.492821 375.211517,96.442551 
	C377.610168,85.878555 379.873505,75.280182 381.965912,64.651520 
	C383.434296,57.192787 383.455811,57.000015 391.310394,56.999981 
	C400.410217,56.999943 400.414917,57.001446 402.906464,49.200882 
	C402.984650,48.956097 402.741882,48.608807 402.599030,48.149498 
	C401.496948,48.101059 400.346405,48.050488 398.266479,47.999981 
M471.500183,89.001221 
	C469.611084,98.103294 467.721985,107.205376 465.696167,116.966202 
	C471.971771,116.966202 477.594849,117.128723 483.191284,116.815468 
	C484.191528,116.759476 485.653595,114.861534 485.934814,113.598618 
	C489.068481,99.525345 492.010925,85.409500 495.006775,71.305527 
	C496.689667,63.382614 498.375946,55.460426 500.128845,47.217506 
	C493.136139,47.217506 486.873749,47.217506 480.487793,47.217506 
	C477.640045,60.176888 474.825287,72.954514 472.039490,85.738441 
	C471.864594,86.541153 471.915955,87.393166 471.500183,89.001221 
M504.208801,31.438419 
	C506.231934,23.978483 504.457092,20.590296 497.200989,19.233093 
	C492.583984,18.369516 487.931976,19.526018 485.381256,23.605576 
	C483.174133,27.135506 481.773987,31.343380 484.830017,35.579018 
	C489.122375,41.528202 500.103546,39.669071 504.208801,31.438419 
z"/>
<path fill="#BCBCBC" opacity="1.000000" stroke="none" 
	d="
M71.064491,131.061234 
	C60.434547,134.688690 49.822826,138.371094 39.162514,141.906998 
	C36.311832,142.852539 35.663391,140.637222 34.975826,138.489822 
	C29.019350,119.886642 22.970390,101.313026 17.026314,82.705902 
	C12.212504,67.636932 7.510920,52.532116 2.722468,37.454975 
	C2.590774,37.040321 2.034402,36.760540 1.338031,36.708931 
	C1.000000,35.611111 1.000000,34.222221 1.399414,32.425545 
	C17.821583,27.015503 33.844337,22.013243 49.921349,17.477560 
	C50.445591,55.454029 50.915581,92.963921 51.392929,131.061234 
	C58.201447,131.061234 64.632965,131.061234 71.064491,131.061234 
z"/>
<path fill="#BCBCBC" opacity="1.000000" stroke="none" 
	d="
M172.467941,148.000000 
	C172.000000,144.448944 172.000000,140.897873 172.000000,137.010284 
	C173.370956,137.010284 174.346146,136.889755 175.282684,137.029053 
	C183.996902,138.325211 187.759140,136.079575 189.817627,127.297081 
	C192.773544,114.685776 195.321915,101.978165 197.983337,89.298874 
	C200.215332,78.665337 202.360123,68.013504 204.614517,57.023659 
	C200.844330,57.023659 197.092178,57.023659 193.319397,57.023659 
	C192.483459,53.524433 193.607773,51.540516 196.846024,50.990318 
	C203.761948,49.815273 207.573944,46.562183 208.959671,38.914822 
	C209.979324,33.287746 213.354446,27.270174 217.444519,23.199661 
	C224.365631,16.311619 233.611359,18.812788 242.163528,20.188654 
	C242.858505,20.300457 243.763962,21.472363 243.902359,22.268072 
	C244.526428,25.856070 239.955109,30.039877 236.485443,29.213749 
	C228.136673,27.225910 222.083664,31.541580 220.056366,41.009235 
	C219.616608,43.062927 219.428009,45.170410 219.038254,47.838097 
	C223.612457,47.838097 228.143341,47.838097 233.316162,47.838097 
	C232.744965,51.184494 232.289536,53.852615 231.752258,57.000359 
	C227.844284,57.000359 223.859802,56.764030 219.931290,57.129475 
	C218.569595,57.256145 216.451843,58.678452 216.195419,59.842831 
	C212.642914,75.974174 209.563446,92.210869 205.924271,108.321510 
	C203.691162,118.207413 201.204269,128.102448 197.799271,137.624313 
	C196.447571,141.404236 192.304581,144.186020 189.716217,147.711121 
	C184.311966,148.000000 178.623917,148.000000 172.467941,148.000000 
z"/>
<path fill="#000000" opacity="1.000000" stroke="none" 
	d="
M49.867092,17.010983 
	C33.844337,22.013243 17.821583,27.015503 1.399414,32.008881 
	C1.000000,21.703259 1.000000,11.406516 1.000000,1.000000 
	C31.687481,1.000000 62.375080,1.000000 93.825432,1.325327 
	C93.782639,2.110799 93.026451,2.716022 92.164154,3.009303 
	C79.436409,7.338246 66.694580,11.625747 53.582893,15.948997 
	C52.095497,16.320272 50.981297,16.665627 49.867092,17.010983 
z"/>
<path fill="#B8BBB9" opacity="1.000000" stroke="none" 
	d="
M53.956085,15.923076 
	C66.694580,11.625747 79.436409,7.338246 92.164154,3.009303 
	C93.026451,2.716022 93.782639,2.110799 94.294090,1.325327 
	C95.066673,1.000000 96.133339,1.000000 97.600006,1.000000 
	C99.340630,5.393870 100.681252,9.787741 101.764816,14.857260 
	C85.657196,15.662965 69.806641,15.793020 53.956085,15.923076 
z"/>
<path fill="#FFFFFF" opacity="1.000000" stroke="none" 
	d="
M625.000000,40.555840 
	C622.067078,40.690849 619.134155,40.381695 615.868591,40.037476 
	C616.121765,38.406082 616.433777,36.396019 616.745789,34.385956 
	C616.399963,34.188774 616.054077,33.991596 615.708191,33.794415 
	C614.575256,36.243313 613.442261,38.692207 612.309326,41.141106 
	C612.117615,41.079559 611.925903,41.018017 611.734253,40.956470 
	C611.888550,38.414604 612.042908,35.872742 612.208618,33.143776 
	C614.215515,33.143776 616.946899,33.143776 619.792175,33.143776 
	C619.918884,34.358257 620.033325,35.455200 620.141418,36.491631 
	C621.517456,35.327602 622.891357,34.165310 624.632690,33.001511 
	C625.000000,35.370556 625.000000,37.741116 625.000000,40.555840 
z"/>
<path fill="#039934" opacity="1.000000" stroke="none" 
	d="
M53.582893,15.948997 
	C69.806641,15.793020 85.657196,15.662965 101.826569,15.251374 
	C116.882660,14.980704 131.622711,15.155355 146.355530,14.904942 
	C150.912842,14.827480 152.138641,16.713173 152.032059,20.746756 
	C151.887741,26.207529 151.972031,31.674345 151.578156,37.526337 
	C146.076035,32.373077 140.954010,26.832052 135.663177,21.108421 
	C133.417953,23.710829 131.611191,25.805000 129.829559,27.870060 
	C137.360657,38.371605 144.611679,48.482624 152.352005,59.275948 
	C118.885811,63.486481 86.164093,67.603348 53.442371,71.720215 
	C53.491394,72.103668 53.540417,72.487129 53.589443,72.870590 
	C86.261154,74.360619 118.932877,75.850639 152.336136,77.374031 
	C144.591980,91.061798 137.194763,104.136345 129.792526,117.219772 
	C131.899155,119.545624 133.745895,121.584557 135.777344,123.827400 
	C137.466537,122.035088 138.814102,120.590767 140.177383,119.161453 
	C144.396927,114.737541 148.622452,110.319351 152.845642,105.898941 
	C152.845642,113.698883 152.845642,121.498825 152.845642,130.051682 
	C125.735329,130.376129 98.864120,130.697723 71.528702,131.040268 
	C64.632965,131.061234 58.201447,131.061234 51.392929,131.061234 
	C50.915581,92.963921 50.445591,55.454029 49.921349,17.477558 
	C50.981297,16.665627 52.095497,16.320272 53.582893,15.948997 
z"/>
<path fill="#019833" opacity="1.000000" stroke="none" 
	d="
M582.933228,113.696533 
	C585.467896,101.223801 587.963135,89.171570 590.445374,77.116669 
	C590.974182,74.548393 592.057800,71.904755 591.786621,69.415558 
	C591.523865,67.003326 590.227417,63.127350 588.707520,62.769203 
	C585.880188,62.102951 581.279419,62.439892 579.704163,64.298157 
	C576.073853,68.580803 572.741699,73.718269 571.213989,79.059601 
	C567.701782,91.339684 565.338318,103.948341 562.441589,116.719276 
	C556.168945,116.719276 549.757263,116.719276 542.893677,116.719276 
	C545.816040,102.904945 548.697205,89.455070 551.479309,75.984749 
	C552.006287,73.433113 552.618164,70.741364 552.307068,68.223465 
	C552.052002,66.159004 550.691406,62.757477 549.454224,62.585426 
	C546.612610,62.190250 542.834656,62.487587 540.710754,64.140732 
	C535.046753,68.549446 532.682190,75.283272 531.051331,82.049835 
	C528.514160,92.576614 526.429260,103.212364 523.896667,113.740341 
	C523.589172,115.018707 521.754211,116.764427 520.533081,116.843704 
	C515.251221,117.186592 509.934296,116.990540 503.655853,116.990540 
	C508.624786,93.412994 513.471008,70.417603 518.356628,47.235321 
	C523.494202,47.235321 528.432373,47.235321 533.378479,47.235321 
	C533.214417,50.605003 533.057678,53.825363 532.844482,58.204441 
	C538.490173,50.731293 544.826843,46.157005 553.299438,45.046406 
	C560.282715,44.131039 566.997314,49.000927 571.302490,58.401283 
	C576.728394,52.731091 581.709839,46.966888 590.379395,45.607811 
	C601.386292,43.882313 610.492126,50.585819 611.062561,61.642826 
	C611.720581,74.397980 607.978027,86.425362 605.626953,98.689484 
	C604.484497,104.648621 603.137817,110.568588 601.782349,116.985794 
	C595.855469,116.985794 590.057373,117.054794 584.268005,116.861366 
	C583.778320,116.845001 583.347351,115.072647 582.933228,113.696533 
z"/>
<path fill="#FCFEFC" opacity="1.000000" stroke="none" 
	d="
M152.994141,105.590141 
	C148.622452,110.319351 144.396927,114.737541 140.177383,119.161453 
	C138.814102,120.590767 137.466537,122.035088 135.777344,123.827400 
	C133.745895,121.584557 131.899155,119.545624 129.792526,117.219772 
	C137.194763,104.136345 144.591980,91.061798 152.336136,77.374031 
	C118.932877,75.850639 86.261154,74.360619 53.589443,72.870590 
	C53.540417,72.487129 53.491394,72.103668 53.442371,71.720215 
	C86.164093,67.603348 118.885811,63.486481 152.352005,59.275948 
	C144.611679,48.482624 137.360657,38.371605 129.829559,27.870060 
	C131.611191,25.805000 133.417953,23.710829 135.663177,21.108421 
	C140.954010,26.832052 146.076035,32.373077 151.522202,37.996868 
	C161.346237,48.664761 170.904663,59.198902 180.249573,69.919144 
	C181.120590,70.918358 181.413239,73.771378 180.668991,74.623573 
	C171.635727,84.967018 162.357315,95.096359 152.994141,105.590141 
z"/>
<path fill="#019833" opacity="1.000000" stroke="none" 
	d="
M427.001160,91.543121 
	C427.001801,92.602219 427.001801,93.265182 427.001801,94.078819 
	C433.358459,81.380867 440.096497,69.057823 445.718658,56.245136 
	C448.866760,49.070713 452.787598,45.526505 460.797333,46.903965 
	C464.161011,47.482430 467.707062,47.000248 471.873840,47.000248 
	C459.480316,69.818222 447.406158,92.132713 435.168518,114.357170 
	C434.475647,115.615517 432.483734,116.783798 431.023254,116.879631 
	C426.210693,117.195389 421.358185,116.848801 416.533569,117.053276 
	C413.519073,117.181030 412.307587,115.790436 412.020111,113.084442 
	C411.010925,103.585121 410.118774,94.071556 408.963989,84.589973 
	C407.474609,72.361275 405.775085,60.158154 404.103241,47.467125 
	C410.563599,47.467125 416.908997,47.467125 423.506653,47.467125 
	C424.665314,61.952541 425.832947,76.549767 427.001160,91.543121 
z"/>
<path fill="#BCBCBC" opacity="1.000000" stroke="none" 
	d="
M274.961029,112.850571 
	C274.991058,110.808762 274.991058,109.191345 274.991058,108.497833 
	C269.297302,111.606384 263.742676,115.731720 257.505951,117.810364 
	C245.511551,121.807976 235.995483,114.364769 234.164398,102.752022 
	C231.789841,87.692390 234.699707,73.341888 243.217499,60.518116 
	C250.653687,49.322781 263.721100,43.948460 274.392700,48.200798 
	C278.670288,49.905293 282.049469,53.864292 285.774963,56.748642 
	C286.550323,54.897385 287.020111,51.444031 288.997589,49.717567 
	C290.930237,48.030235 294.401154,48.104862 298.496429,47.081203 
	C297.457214,53.059097 296.776978,57.780647 295.801147,62.440296 
	C292.252350,79.386353 288.577942,96.306091 285.022736,113.250824 
	C284.481842,115.828964 283.510315,117.386528 280.524536,117.042290 
	C278.567566,116.816673 276.563507,116.999680 273.842865,116.999680 
	C274.285187,115.485588 274.608093,114.380280 274.961029,112.850571 
M279.999146,75.569702 
	C280.748077,70.751884 281.227173,65.853485 278.092926,61.698486 
	C271.794891,53.349342 261.025970,56.906879 255.186188,64.569061 
	C247.866180,74.173409 245.172241,85.377487 246.221588,97.209709 
	C246.524033,100.619888 248.731522,105.299698 251.445145,106.674652 
	C254.486618,108.215706 259.900665,108.011681 262.874207,106.224304 
	C273.850739,99.626389 278.293304,88.692818 279.999146,75.569702 
z"/>
<path fill="#BCBCBC" opacity="1.000000" stroke="none" 
	d="
M331.712250,91.299118 
	C326.463470,88.004745 321.364380,85.158470 316.599854,81.832870 
	C309.802094,77.088089 307.994232,70.086945 309.072021,62.274143 
	C309.945129,55.945038 316.517456,49.512470 323.047180,47.992882 
	C333.637024,45.528435 343.762207,47.189953 353.610596,51.435398 
	C353.545288,51.610271 353.432648,51.862122 353.355865,52.124470 
	C350.751282,61.022076 350.839935,60.650307 341.691711,58.481728 
	C337.279175,57.435738 332.433289,57.722324 327.838623,58.091019 
	C323.885498,58.408237 321.376007,61.060837 321.025299,65.197571 
	C320.662018,69.483101 322.967926,72.067604 326.509552,74.225243 
	C331.906830,77.513367 337.413086,80.797592 342.201202,84.872871 
	C351.190155,92.523575 348.873016,111.934341 334.070984,116.778938 
	C324.860077,119.793610 315.272369,119.888489 305.744324,116.526398 
	C301.957581,115.190201 300.330536,113.645889 300.946991,109.674011 
	C301.249573,107.724220 300.999451,105.688660 300.999451,103.946785 
	C306.429565,105.509903 311.738342,107.353973 317.192413,108.516006 
	C322.275635,109.599030 327.304443,108.770897 331.339600,105.147606 
	C336.289795,100.702744 336.383789,96.798676 331.712250,91.299118 
z"/>
<path fill="#BCBCBC" opacity="1.000000" stroke="none" 
	d="
M398.731171,47.999947 
	C400.346405,48.050488 401.496948,48.101059 402.599030,48.149498 
	C402.741882,48.608807 402.984650,48.956097 402.906464,49.200882 
	C400.414917,57.001446 400.410217,56.999943 391.310394,56.999981 
	C383.455811,57.000015 383.434296,57.192787 381.965912,64.651520 
	C379.873505,75.280182 377.610168,85.878555 375.211517,96.442551 
	C373.156525,105.492821 376.508972,109.343414 385.642517,107.983925 
	C387.233337,107.747131 388.794830,107.313469 390.316742,106.982307 
	C390.587677,107.383499 390.907806,107.638985 390.922211,107.910675 
	C391.366821,116.302948 391.383118,116.385628 382.966431,118.523819 
	C376.502380,120.165947 363.177307,116.763100 363.112427,107.883324 
	C363.068359,101.857841 363.647278,95.747627 364.711426,89.812271 
	C366.481018,79.942688 368.880310,70.186531 370.962402,60.371590 
	C371.159790,59.441193 370.988739,58.432640 370.988739,57.084938 
	C367.614319,57.084938 364.507538,57.084938 361.093109,57.084938 
	C361.356537,53.337067 361.794250,50.777641 366.052063,49.832874 
	C372.640015,48.371078 376.089630,43.082260 378.916565,37.386837 
	C381.923737,31.328417 381.960236,31.346540 389.034363,32.544636 
	C387.971100,37.546886 386.908752,42.544800 385.749237,47.999981 
	C390.324768,47.999981 394.295624,47.999981 398.731171,47.999947 
z"/>
<path fill="#019833" opacity="1.000000" stroke="none" 
	d="
M471.681091,88.611725 
	C471.915955,87.393166 471.864594,86.541153 472.039490,85.738441 
	C474.825287,72.954514 477.640045,60.176888 480.487793,47.217506 
	C486.873749,47.217506 493.136139,47.217506 500.128845,47.217506 
	C498.375946,55.460426 496.689667,63.382614 495.006775,71.305527 
	C492.010925,85.409500 489.068481,99.525345 485.934814,113.598618 
	C485.653595,114.861534 484.191528,116.759476 483.191284,116.815468 
	C477.594849,117.128723 471.971771,116.966202 465.696167,116.966202 
	C467.721985,107.205376 469.611084,98.103294 471.681091,88.611725 
z"/>
<path fill="#019833" opacity="1.000000" stroke="none" 
	d="
M504.123962,31.829006 
	C500.103546,39.669071 489.122375,41.528202 484.830017,35.579018 
	C481.773987,31.343380 483.174133,27.135506 485.381256,23.605576 
	C487.931976,19.526018 492.583984,18.369516 497.200989,19.233093 
	C504.457092,20.590296 506.231934,23.978483 504.123962,31.829006 
z"/>
<path fill="#000000" opacity="1.000000" stroke="none" 
	d="
M279.999268,76.010468 
	C278.293304,88.692818 273.850739,99.626389 262.874207,106.224304 
	C259.900665,108.011681 254.486618,108.215706 251.445145,106.674652 
	C248.731522,105.299698 246.524033,100.619888 246.221588,97.209709 
	C245.172241,85.377487 247.866180,74.173409 255.186188,64.569061 
	C261.025970,56.906879 271.794891,53.349342 278.092926,61.698486 
	C281.227173,65.853485 280.748077,70.751884 279.999268,76.010468 
z"/>
</svg>